<?xml version="1.0" encoding="utf-8"?>
<!-- Generator: Adobe Illustrator 19.0.0, SVG Export Plug-In . SVG Version: 6.00 Build 0)  -->
<svg version="1.1" id="Calque_1" xmlns="http://www.w3.org/2000/svg" xmlns:xlink="http://www.w3.org/1999/xlink" x="0px" y="0px"
	 viewBox="0 0 528.9 278.7" style="enable-background:new 0 0 528.9 278.7;" xml:space="preserve">
<style type="text/css">
	.st0{fill:none;stroke:#CFCCC5;stroke-miterlimit:10;}
	.st1{fill:#CFCCC5;}
</style>
<g id="XMLID_1_">
	<g id="XMLID_71_">
		<polygon id="XMLID_179_" class="st0" points="136.7,76.4 136.7,104.7 148.7,104.7 148.7,117.7 158.7,117.7 158.7,127.7 
			177.7,127.7 177.7,139.3 177.7,149.7 160,149.7 160.2,159.7 150,159.7 150.2,168.7 138,168.7 137.5,202.7 148.7,202.7 
			148.7,211.7 161,211.7 161.2,222.2 178.9,222.4 178.7,232.3 189.7,231.7 189.7,254.7 201.7,254.7 201.7,265.7 212.7,265.7 
			212.7,277.7 241.7,277.7 241.7,265.7 253.7,265.7 253.7,253.2 264.7,253.5 264.7,233.2 285.7,233.3 285.7,254.7 296.7,254.7 
			296.7,263.2 306.7,263 306.7,278.7 336.7,278.7 336.7,264.2 348.7,264.3 348.7,253.2 359.7,253.3 359.7,233.7 368.7,233.7 
			368.7,222.2 390.7,222.3 390.7,211.2 400.7,211.3 400.7,202.7 412.7,202.7 412.7,170.2 400.7,170 400.7,159.5 390.7,159.3 
			390.7,149.2 370.1,148.7 369.8,127.7 389.7,128.2 389.7,117.2 400.7,117.5 400.7,103.2 413.7,103.3 413.7,75.7 402.7,75.4 
			402.3,65.2 390.7,65.7 390.7,53.7 371,53.7 370.8,43.7 360,43.7 359.8,23.4 349.9,23.7 349.7,11.7 340,11.7 339.5,0.7 308.5,0.7 
			308,11.7 298.4,11.9 298,21.2 287.8,21.2 287.2,41.1 266.8,41.2 266.7,21 254.8,21.2 254.2,10 241.7,9.8 241.7,0.2 213.8,0 
			213.8,10.7 204,10.7 203.8,20.7 190.5,20.6 190.2,41.6 179.8,42.4 180.2,53.7 160,53.7 160.3,65.7 149.7,65.7 149.7,76.2 		"/>
		<rect id="XMLID_178_" x="159.1" y="180.5" class="st1" width="10.3" height="10.1"/>
		<rect id="XMLID_177_" x="179.9" y="180.5" class="st1" width="10.3" height="10.1"/>
		<rect id="XMLID_176_" x="203" y="128.5" class="st1" width="10.3" height="10.1"/>
		<rect id="XMLID_175_" x="191.5" y="118.4" class="st1" width="10.3" height="10.1"/>
		<rect id="XMLID_174_" x="255.5" y="118.4" class="st1" width="10.3" height="10.1"/>
		<rect id="XMLID_173_" x="287" y="148.8" class="st1" width="10.3" height="10.1"/>
		<rect id="XMLID_172_" x="256.5" y="138.6" class="st1" width="10.3" height="10.1"/>
		<rect id="XMLID_171_" x="244.3" y="149.5" class="st1" width="10.3" height="10.1"/>
		<rect id="XMLID_170_" x="256.5" y="159.6" class="st1" width="10.3" height="10.1"/>
		<rect id="XMLID_169_" x="266.8" y="149.5" class="st1" width="10.3" height="10.1"/>
		<rect id="XMLID_168_" x="277.5" y="117.5" class="st1" width="10.3" height="10.1"/>
		<rect id="XMLID_167_" x="266.8" y="128.5" class="st1" width="10.3" height="10.1"/>
		<rect id="XMLID_166_" x="277.1" y="138.6" class="st1" width="10.3" height="10.1"/>
		<rect id="XMLID_165_" x="287.8" y="128.5" class="st1" width="10.3" height="10.1"/>
		<rect id="XMLID_164_" x="287.8" y="107" class="st1" width="10.3" height="10.1"/>
		<rect id="XMLID_163_" x="298.1" y="118" class="st1" width="10.3" height="10.1"/>
		<rect id="XMLID_162_" x="223.6" y="85.1" class="st1" width="10.3" height="10.1"/>
		<rect id="XMLID_161_" x="191.5" y="53.1" class="st1" width="10.3" height="10.1"/>
		<rect id="XMLID_160_" x="266.8" y="65.3" class="st1" width="10.3" height="10.1"/>
		<rect id="XMLID_159_" x="256.5" y="53.9" class="st1" width="10.3" height="10.1"/>
		<rect id="XMLID_158_" x="203" y="212.6" class="st1" width="10.3" height="10.1"/>
		<rect id="XMLID_157_" x="203" y="181.4" class="st1" width="10.3" height="10.1"/>
		<rect id="XMLID_156_" x="223.7" y="170.2" class="st1" width="10.3" height="10.1"/>
		<rect id="XMLID_155_" x="191.5" y="202" class="st1" width="10.3" height="10.1"/>
		<rect id="XMLID_154_" x="235.3" y="212.6" class="st1" width="19.6" height="10.1"/>
		<rect id="XMLID_153_" x="224.1" y="222.7" class="st1" width="10.3" height="10.1"/>
		<rect id="XMLID_152_" x="224.1" y="243.6" class="st1" width="10.3" height="10.1"/>
		<rect id="XMLID_151_" x="223.7" y="191.2" class="st1" width="10.3" height="20.6"/>
		<rect id="XMLID_150_" x="234" y="170.2" class="st1" width="10.3" height="20.6"/>
		<rect id="XMLID_149_" x="213.3" y="138.6" class="st1" width="10.3" height="10.1"/>
		<rect id="XMLID_148_" x="223.6" y="138.6" class="st1" width="10.3" height="20.4"/>
		<rect id="XMLID_147_" x="191.5" y="159.6" class="st1" width="10.3" height="20.6"/>
		<rect id="XMLID_146_" x="203" y="148.7" class="st1" width="20.6" height="10.3"/>
		<rect id="XMLID_145_" x="277.6" y="75" class="st1" width="10.1" height="10.3"/>
		<rect id="XMLID_144_" x="277.6" y="85.3" class="st1" width="20.4" height="10.3"/>
		<rect id="XMLID_143_" x="287.7" y="64.7" class="st1" width="10.3" height="20.6"/>
		<rect id="XMLID_142_" x="265.9" y="191.4" class="st1" width="10.1" height="10.3"/>
		<rect id="XMLID_141_" x="255.6" y="181.1" class="st1" width="20.4" height="10.3"/>
		<rect id="XMLID_140_" x="255.6" y="191.4" class="st1" width="10.3" height="20.6"/>
		<rect id="XMLID_139_" x="328.5" y="127.8" class="st1" width="10.3" height="10.1"/>
		<rect id="XMLID_138_" x="318.2" y="117.5" class="st1" width="10.3" height="20.4"/>
		<rect id="XMLID_137_" x="328.5" y="117.5" class="st1" width="20.6" height="10.3"/>
		<rect id="XMLID_136_" x="213.3" y="181.4" class="st1" width="10.3" height="20.6"/>
		<rect id="XMLID_135_" x="383.5" y="85.7" class="st1" width="10.3" height="10.1"/>
		<rect id="XMLID_134_" x="362.7" y="85.7" class="st1" width="10.3" height="10.1"/>
		<rect id="XMLID_133_" x="339.6" y="53.7" class="st1" width="10.3" height="10.1"/>
		<rect id="XMLID_132_" x="339.6" y="84.9" class="st1" width="10.3" height="10.1"/>
		<rect id="XMLID_131_" x="318.9" y="96.1" class="st1" width="10.3" height="10.1"/>
		<rect id="XMLID_130_" x="351.1" y="64.3" class="st1" width="10.3" height="10.1"/>
		<rect id="XMLID_129_" x="298" y="53.7" class="st1" width="19.6" height="10.1"/>
		<rect id="XMLID_128_" x="318.5" y="21.9" class="st1" width="10.3" height="10.1"/>
		<rect id="XMLID_127_" x="318.9" y="42.7" class="st1" width="10.3" height="10.1"/>
		<rect id="XMLID_126_" x="318.9" y="64.6" class="st1" width="10.3" height="20.6"/>
		<rect id="XMLID_125_" x="308.6" y="85.5" class="st1" width="10.3" height="20.6"/>
		<rect id="XMLID_124_" x="351.1" y="96.1" class="st1" width="10.3" height="20.6"/>
		<rect id="XMLID_123_" x="329.3" y="74.4" class="st1" width="10.3" height="20.6"/>
		<polygon id="XMLID_122_" class="st1" points="224,96.2 203.2,96.2 203.2,118.2 223.2,118.2 223.2,127.2 234.2,127.6 234.2,137.2 
			254.2,137.8 254.2,128.2 243.2,128.5 243.2,118.2 254.2,118 254.2,105.2 265.2,105.2 265.2,117.2 275.2,117.1 275.2,96.2 
			266,96.2 265.8,86.2 255,86.2 255.5,66.2 235,66.2 235.2,83.2 245,83.2 245.2,103.9 223.6,103.9 		"/>
		<polygon id="XMLID_121_" class="st1" points="158.2,75.2 158.2,86.2 149.2,86.2 149.2,94.2 158.2,94.2 158.2,104.2 168.2,104.2 
			168.2,117.2 188.2,117.2 188.2,97.2 180,97.2 179.8,84.2 188,84.2 188.1,93.9 202.2,93.8 202.2,83.2 221.2,82.8 221.2,66.2 
			231.2,66.2 231.2,54.2 222,54.2 221.7,41.2 233.2,41.2 233.2,52.2 254.2,52.5 254.2,32.2 241.2,32.2 241.2,22.2 232.2,22.2 
			232.2,12.2 224,12.2 223.6,21.9 214.7,21.6 214.2,31.2 202.2,31.2 202.2,52.2 214,52.2 213.3,65.5 202.2,65.3 202.2,77.2 
			190.2,77.2 190.2,65.3 169.2,65 169.2,75.2 		"/>
		<rect id="XMLID_120_" x="338.8" y="138.2" class="st1" width="10.3" height="10.1"/>
		<rect id="XMLID_119_" x="350.3" y="148.3" class="st1" width="10.3" height="10.1"/>
		<rect id="XMLID_118_" x="318.2" y="181.5" class="st1" width="10.3" height="10.1"/>
		<rect id="XMLID_78_" x="275" y="201.4" class="st1" width="10.3" height="10.1"/>
		<rect id="XMLID_77_" x="285.3" y="212.7" class="st1" width="10.3" height="10.1"/>
		<polygon id="XMLID_76_" class="st1" points="328.1,180.2 349.2,180.2 349.2,158.2 329.2,158.2 329.2,149.6 318.2,149.1 
			318.2,139.6 298.2,138.9 298.2,148.6 309.2,148.3 309.2,158.6 298.2,158.8 298.2,171.2 287.2,171.2 287.2,159.6 277.2,159.7 
			277.2,180.2 286.1,180.2 286.3,190.2 297.1,190.2 296.6,210.2 317.1,210.2 316.9,193.2 307.1,193.2 306.9,172.6 328.5,172.6 		"/>
		<polygon id="XMLID_75_" class="st1" points="394.2,201.2 394.2,190.2 403.2,190.2 403.2,182.2 394.2,182.2 394.2,172.2 
			384.2,172.2 384.2,159.2 364.2,159.2 364.2,179.2 372.1,179.2 372.2,192.2 364.1,192.2 364.1,182.6 350.2,182.9 350.2,193.6 
			331.2,193.9 331.2,210.2 321.2,210.2 321.2,222.2 330.1,222.2 330.4,235.2 319.2,235.2 319.2,224.6 298.2,224.3 298.2,244.2 
			311.2,244.2 311.2,254.2 320.2,254.2 320.2,264.2 328.1,264.2 328.5,254.6 337.4,254.8 337.9,245.2 350.2,245.2 350.2,224.2 
			338.1,224.2 339,211 350.2,211.4 350.2,199.2 362.2,199.2 362.2,211.4 383.2,211.8 383.2,201.2 		"/>
		<rect id="XMLID_73_" x="350.5" y="212.8" class="st1" width="10.3" height="10.1"/>
		<polygon id="XMLID_74_" class="st1" points="271.5,213.2 265.2,213.2 265.2,225.2 254.2,225.2 254.2,235.2 244.2,235.2 
			244.2,255.2 233.2,255.2 233.2,265.2 222.2,265.2 222.2,254.2 212.2,254.3 212.2,233.2 201.2,233.3 201.2,223.2 189.2,223.3 
			189.2,212.2 180.2,211.8 180.2,200.9 159.2,201.2 159.2,191.2 147.7,191.2 148,182.2 158,182.2 157.8,171.2 180,171.2 
			179.9,161.2 190,161.2 189.8,150.2 202,150.2 201.5,138.2 178.5,138.2 178,149.2 160,149.2 160.2,159.2 150,159.2 150.2,168.2 
			138,168.2 137.5,202.2 149,202.2 149.5,211.2 161,211.2 161.2,222.2 178.9,222.2 179.1,232.2 190,232.2 190.5,254.2 202,254.2 
			202.5,265.2 213,265.2 213.5,277.2 242,277.2 242.5,265.2 254,265.2 254.4,253.4 265.2,253.5 265.2,233.2 275.8,233.2 
			275.9,212.8 		"/>
		<polygon id="XMLID_72_" class="st1" points="280.9,63.2 287.2,63.2 287.2,51.2 298.2,51.2 298.2,41.2 308.2,41.2 308.2,21.2 
			319.2,21.2 319.2,11.2 330.2,11.2 330.2,22.2 340.2,22 340.2,43.2 351.2,43 351.2,53.2 363.2,53 363.2,64.2 372.2,64.5 
			372.2,75.4 393.2,75.2 393.2,85.2 403.2,85.2 403.2,96.2 394.2,96.2 394.2,105.2 372.4,105.2 372.5,115.2 362.4,115.2 
			362.6,126.2 350.4,126.2 350.8,138.2 373.9,138.2 374.2,127.2 390.2,128.2 390.2,117.2 401.6,117.5 402.2,108.2 414.4,108.2 
			414.9,74.2 403.4,74.2 402.9,65.2 391.4,65.2 391.5,53.2 371,53.2 370.8,42.7 362.3,42.8 361.9,22.2 350.4,22.2 349.9,11.2 
			340,10.7 339.5,0.2 308.2,0.2 308.2,11.2 298.4,11.2 298.5,20.2 286.9,20.4 287.3,41 276.2,41.1 276.2,63.5 		"/>
	</g>
	<g id="XMLID_258_">
		<path id="XMLID_259_" class="st1" d="M2.6,150.6v-23.5h9.2c0.7,0,1.4,0.1,2.1,0.3c0.7,0.2,1.3,0.5,1.9,1c0.6,0.5,1.1,1.2,1.4,2.2
			s0.5,2.2,0.5,3.8c0,1.6-0.2,2.9-0.6,3.9c-0.4,1-0.9,1.8-1.5,2.3c-0.6,0.5-1.3,0.9-2,1.1c-0.7,0.2-1.4,0.3-2,0.3
			c-0.3,0-0.8,0-1.5,0c-0.7,0-1.3,0-2.1-0.1c-0.7,0-1.4-0.1-2.1-0.1c-0.7,0-1.1-0.1-1.5-0.1v8.9H2.6z M4.4,140.3h6.9
			c0.8,0,1.6-0.2,2.2-0.5c0.7-0.3,1.2-0.9,1.6-1.8c0.4-0.8,0.6-2,0.6-3.6c0-1.5-0.2-2.7-0.6-3.5s-0.9-1.4-1.6-1.7
			c-0.6-0.3-1.3-0.5-2.1-0.5H4.4V140.3z"/>
		<path id="XMLID_262_" class="st1" d="M26.2,150.6c-0.8,0-1.6-0.1-2.2-0.4c-0.7-0.3-1.2-0.7-1.6-1.4c-0.4-0.7-0.6-1.6-0.6-2.7v-19
			h1.9v18.8c0,0.8,0.1,1.5,0.4,1.9s0.7,0.7,1.1,0.8c0.5,0.1,0.9,0.2,1.4,0.2h8.7v1.7H26.2z"/>
		<path id="XMLID_264_" class="st1" d="M53.4,150c0.1,0.2,0.1,0.3,0.1,0.4c0,0.1,0,0.2-0.1,0.2c-0.1,0.1-0.2,0.1-0.3,0.1
			c-0.2,0-0.3,0-0.6,0c-0.2,0-0.4,0-0.5,0s-0.2,0-0.3-0.1c-0.1,0-0.1-0.1-0.1-0.1c0-0.1,0-0.1-0.1-0.2l-6.3-19.8h0l-6.2,19.8
			c0,0.1,0,0.1-0.1,0.2s-0.1,0.1-0.2,0.1c-0.1,0-0.2,0.1-0.3,0.1s-0.3,0-0.5,0c-0.2,0-0.4,0-0.6,0c-0.1,0-0.3-0.1-0.3-0.1
			c-0.1,0-0.1-0.1-0.1-0.2s0-0.2,0.1-0.4l7-21.2c0-0.1,0.1-0.2,0.1-0.2s0.1-0.1,0.2-0.1c0.1,0,0.2-0.1,0.4-0.1s0.3,0,0.5,0
			c0.1,0,0.2,0,0.3,0c0.1,0,0.2,0,0.3,0c0.1,0,0.2,0,0.2,0.1s0.1,0,0.2,0.1c0.1,0,0.1,0.1,0.1,0.1s0.1,0.1,0.1,0.1L53.4,150z"/>
		<path id="XMLID_266_" class="st1" d="M57.2,150.6v-23.5h1.6l13,20.3v-20.3h1.9v23.5h-1.5l-13-20.3v20.3H57.2z"/>
		<path id="XMLID_268_" class="st1" d="M78.3,150.6v-23.5h1.9V138h4.5l6.9-10.9h2l-7.4,11.7l7.5,11.7h-2l-7-10.9h-4.4v10.9H78.3z"/>
		<path id="XMLID_270_" class="st1" d="M102.8,150.6v-21.8h-7.5v-1.7h16.9v1.7h-7.5v21.8H102.8z"/>
		<path id="XMLID_272_" class="st1" d="M123.4,150.8c-1.5,0-2.8-0.1-3.9-0.4c-1.1-0.3-2-0.8-2.8-1.6c-0.7-0.8-1.3-2-1.7-3.6
			c-0.4-1.6-0.6-3.6-0.6-6.2c0-2.6,0.2-4.7,0.6-6.3c0.4-1.6,0.9-2.8,1.7-3.6c0.8-0.8,1.7-1.4,2.8-1.7c1.1-0.3,2.4-0.4,3.8-0.4
			c1.5,0,2.8,0.2,4,0.4c1.1,0.3,2,0.9,2.8,1.7c0.7,0.8,1.3,2.1,1.6,3.6c0.4,1.6,0.5,3.7,0.5,6.3c0,2.6-0.2,4.6-0.5,6.2
			c-0.4,1.6-0.9,2.8-1.7,3.6c-0.7,0.8-1.7,1.3-2.8,1.6C126.2,150.7,124.9,150.8,123.4,150.8z M123.4,149.1c1.3,0,2.3-0.1,3.2-0.4
			s1.6-0.7,2.2-1.4c0.6-0.7,1-1.7,1.2-3.1c0.3-1.3,0.4-3.1,0.4-5.3c0-2.3-0.1-4.1-0.4-5.5s-0.7-2.4-1.2-3.1
			c-0.6-0.7-1.3-1.2-2.2-1.4s-2-0.4-3.2-0.4c-1.2,0-2.2,0.1-3.1,0.4s-1.6,0.7-2.2,1.4c-0.6,0.7-1,1.7-1.3,3.1s-0.4,3.2-0.4,5.5
			c0,2.2,0.1,4,0.4,5.3c0.2,1.3,0.6,2.4,1.2,3.1c0.6,0.7,1.3,1.2,2.2,1.4S122.1,149.1,123.4,149.1z"/>
		<path id="XMLID_275_" class="st1" d="M137.4,150.6v-23.5h1.6l13,20.3v-20.3h1.9v23.5h-1.5l-13-20.3v20.3H137.4z"/>
	</g>
	<g id="XMLID_69_">
		<path id="XMLID_70_" class="st1" d="M402.9,153.4c-0.4,0-1,0-1.6,0c-0.6,0-1.3-0.1-2-0.1s-1.3-0.1-2-0.2c-0.6-0.1-1.1-0.1-1.5-0.2
			v-1.4c0.5,0,1.1,0.1,1.9,0.1c0.8,0,1.6,0.1,2.5,0.1c0.9,0,1.8,0,2.6,0c1,0,1.9-0.1,2.8-0.3c0.8-0.2,1.5-0.6,2-1.2
			c0.5-0.6,0.7-1.4,0.7-2.5V146c0-1.2-0.3-2.1-0.9-2.8c-0.6-0.6-1.6-1-2.9-1h-2.7c-1.8,0-3.3-0.4-4.3-1.2c-1.1-0.8-1.6-2.2-1.6-4.2
			v-1.4c0-2.2,0.6-3.7,1.7-4.6c1.2-0.9,2.8-1.3,4.8-1.3c0.6,0,1.4,0,2.2,0.1s1.7,0.1,2.5,0.2c0.8,0.1,1.5,0.2,2,0.3v1.4
			c-0.9-0.1-2-0.1-3.1-0.2c-1.2-0.1-2.3-0.1-3.4-0.1c-1,0-1.9,0.1-2.6,0.4c-0.7,0.2-1.3,0.7-1.7,1.3c-0.4,0.6-0.6,1.5-0.6,2.7v1.2
			c0,1.4,0.4,2.4,1.1,2.9c0.7,0.5,1.8,0.8,3.1,0.8h2.8c1.3,0,2.3,0.2,3.1,0.7c0.8,0.5,1.4,1.1,1.8,1.9c0.4,0.8,0.6,1.7,0.6,2.7v2
			c0,1.5-0.3,2.7-1,3.5s-1.5,1.4-2.6,1.7C405.4,153.2,404.2,153.4,402.9,153.4z"/>
		<path id="XMLID_278_" class="st1" d="M421.1,153.2v-8l-7.6-15.5h2l6.6,13.6l6.6-13.6h1.9l-7.6,15.5v8H421.1z"/>
		<path id="XMLID_280_" class="st1" d="M434.9,153.2v-23.5h1.6l13,20.3v-20.3h1.9v23.5h-1.5l-13-20.3v20.3H434.9z"/>
		<path id="XMLID_282_" class="st1" d="M470.7,152.6c0.1,0.2,0.1,0.3,0.1,0.4s0,0.2-0.1,0.2s-0.2,0.1-0.3,0.1s-0.3,0-0.6,0
			s-0.4,0-0.5,0s-0.2,0-0.3-0.1s-0.1-0.1-0.1-0.1s0-0.1-0.1-0.2l-6.3-19.8h0l-6.2,19.8c0,0.1,0,0.1-0.1,0.2s-0.1,0.1-0.2,0.1
			s-0.2,0.1-0.3,0.1s-0.3,0-0.5,0c-0.2,0-0.4,0-0.6,0s-0.3-0.1-0.3-0.1s-0.1-0.1-0.1-0.2s0-0.2,0.1-0.4l7-21.2
			c0-0.1,0.1-0.2,0.1-0.2s0.1-0.1,0.2-0.1s0.2-0.1,0.4-0.1s0.3,0,0.5,0c0.1,0,0.2,0,0.3,0s0.2,0,0.3,0s0.2,0,0.2,0.1s0.1,0,0.2,0.1
			s0.1,0.1,0.1,0.1s0.1,0.1,0.1,0.1L470.7,152.6z"/>
		<path id="XMLID_284_" class="st1" d="M474,153.2v-23.5h9.2c0.7,0,1.4,0.1,2.1,0.3c0.7,0.2,1.3,0.5,1.9,1c0.6,0.5,1.1,1.2,1.4,2.2
			c0.4,1,0.5,2.2,0.5,3.8c0,1.6-0.2,2.9-0.6,3.9s-0.9,1.8-1.5,2.3c-0.6,0.5-1.3,0.9-2,1.1c-0.7,0.2-1.4,0.3-2,0.3
			c-0.3,0-0.8,0-1.5,0c-0.7,0-1.3,0-2.1-0.1c-0.7,0-1.4-0.1-2.1-0.1c-0.7,0-1.1-0.1-1.5-0.1v8.9H474z M475.9,142.9h6.9
			c0.8,0,1.6-0.2,2.2-0.5c0.7-0.3,1.2-0.9,1.6-1.8s0.6-2,0.6-3.6c0-1.5-0.2-2.7-0.6-3.5s-0.9-1.4-1.6-1.7c-0.6-0.3-1.3-0.5-2.1-0.5
			h-7.2V142.9z"/>
		<path id="XMLID_287_" class="st1" d="M499.7,153.4c-0.4,0-1,0-1.6,0c-0.6,0-1.3-0.1-2-0.1s-1.3-0.1-2-0.2
			c-0.6-0.1-1.1-0.1-1.5-0.2v-1.4c0.5,0,1.1,0.1,1.9,0.1c0.8,0,1.6,0.1,2.5,0.1c0.9,0,1.8,0,2.6,0c1,0,1.9-0.1,2.8-0.3
			c0.8-0.2,1.5-0.6,2-1.2c0.5-0.6,0.7-1.4,0.7-2.5V146c0-1.2-0.3-2.1-0.9-2.8c-0.6-0.6-1.6-1-2.9-1h-2.7c-1.8,0-3.3-0.4-4.3-1.2
			c-1.1-0.8-1.6-2.2-1.6-4.2v-1.4c0-2.2,0.6-3.7,1.7-4.6c1.2-0.9,2.8-1.3,4.8-1.3c0.6,0,1.4,0,2.2,0.1s1.7,0.1,2.5,0.2
			c0.8,0.1,1.5,0.2,2,0.3v1.4c-0.9-0.1-2-0.1-3.1-0.2c-1.2-0.1-2.3-0.1-3.4-0.1c-1,0-1.9,0.1-2.6,0.4c-0.7,0.2-1.3,0.7-1.7,1.3
			c-0.4,0.6-0.6,1.5-0.6,2.7v1.2c0,1.4,0.4,2.4,1.1,2.9c0.7,0.5,1.8,0.8,3.1,0.8h2.8c1.3,0,2.3,0.2,3.1,0.7c0.8,0.5,1.4,1.1,1.8,1.9
			c0.4,0.8,0.6,1.7,0.6,2.7v2c0,1.5-0.3,2.7-1,3.5s-1.5,1.4-2.6,1.7C502.2,153.2,501,153.4,499.7,153.4z"/>
		<path id="XMLID_289_" class="st1" d="M516.4,153.3c-0.5,0-1.1,0-1.6-0.1c-0.5-0.1-1.1-0.3-1.5-0.6c-0.5-0.3-0.9-0.7-1.2-1.3
			c-0.3-0.6-0.4-1.4-0.4-2.4v-14.7c0-0.9,0.1-1.6,0.4-2.2c0.3-0.6,0.6-1,1-1.4c0.4-0.3,0.9-0.6,1.4-0.7c0.5-0.1,1.1-0.2,1.6-0.2
			c1.2,0,2.4,0,3.5,0.1c1.1,0,2.2,0,3.2,0.1c1,0,2,0.1,3,0.1v1.4h-9.3c-0.9,0-1.6,0.2-2.1,0.7c-0.5,0.5-0.8,1.3-0.8,2.3v6.2
			l10.9,0.2v1.4l-10.9,0.2v6.2c0,0.9,0.2,1.5,0.5,2c0.3,0.4,0.7,0.7,1.2,0.8c0.5,0.1,1,0.2,1.5,0.2h9.1v1.4c-1,0-2,0.1-3.1,0.1
			c-1.1,0-2.1,0.1-3.2,0.1C518.4,153.3,517.4,153.3,516.4,153.3z"/>
	</g>
</g>
</svg>
